<svg width="183" height="53" viewBox="0 0 183 53" fill="none" xmlns="http://www.w3.org/2000/svg">
<path d="M2.18995 27.8643L2 26.0354H19.5588L19.7488 27.8643L19.913 29.4454H37.4718L37.3076 27.8643L37.1434 26.2832H54.7022L54.8664 27.8643L55.0601 29.7286H72.6189L72.4253 27.8643L72.2316 26H89.7905L89.9841 27.8643L90.1777 29.7286H107.737L107.543 27.8643L107.349 26H124.908L125.102 27.8643L125.235 29.1504H142.794L142.661 27.8643L142.527 26.5782H160.086L160.219 27.8643L160.441 30H178L177.778 27.8643" stroke="#1F1919" stroke-opacity="0.87" stroke-width="2"/>
<path d="M19.4023 11.6445C20.431 11.6445 21.4531 11.7161 22.4688 11.8594C23.4974 11.9896 24.4805 12.1523 25.418 12.3477C26.3685 12.5299 27.2669 12.7122 28.1133 12.8945C28.9596 13.0768 29.7214 13.207 30.3984 13.2852C30.2422 13.7539 30.1641 14.5807 30.1641 15.7656C30.1641 18.0703 30.5091 20.069 31.1992 21.7617C31.1211 21.9961 30.8802 22.1393 30.4766 22.1914L29.6367 20.3945C29.2201 19.4961 28.7188 18.6107 28.1328 17.7383C27.5469 16.8529 26.8438 16.0651 26.0234 15.375C25.2031 14.6719 24.2461 14.1055 23.1523 13.6758C22.0716 13.2461 20.8216 13.0312 19.4023 13.0312C18.1784 13.0312 17.0911 13.2331 16.1406 13.6367C15.1901 14.0404 14.3568 14.5872 13.6406 15.2773C12.9245 15.9544 12.319 16.7487 11.8242 17.6602C11.3294 18.5586 10.9258 19.5156 10.6133 20.5312C10.3138 21.5469 10.0924 22.5885 9.94922 23.6562C9.81901 24.724 9.75391 25.7591 9.75391 26.7617C9.75391 28.4284 9.96875 30.0234 10.3984 31.5469C10.8411 33.0703 11.5247 34.418 12.4492 35.5898C13.3737 36.7487 14.5456 37.6732 15.9648 38.3633C17.3971 39.0534 19.1029 39.3984 21.082 39.3984C24.8711 39.3984 27.7357 38.2135 29.6758 35.8438C29.8841 35.8438 30.0534 35.9023 30.1836 36.0195C30.3268 36.1367 30.3984 36.2799 30.3984 36.4492C29.7734 37.3737 29.0117 38.1745 28.1133 38.8516C27.2279 39.5286 26.2839 40.0885 25.2812 40.5312C24.2786 40.9609 23.263 41.2799 22.2344 41.4883C21.2188 41.6966 20.2747 41.8008 19.4023 41.8008C18.4518 41.8008 17.4232 41.6966 16.3164 41.4883C15.2227 41.293 14.1224 40.9609 13.0156 40.4922C11.9219 40.0234 10.8672 39.4115 9.85156 38.6562C8.84896 37.888 7.95703 36.9505 7.17578 35.8438C6.39453 34.724 5.76953 33.4154 5.30078 31.918C4.83203 30.4206 4.59766 28.7018 4.59766 26.7617C4.59766 24.8086 4.83203 23.0833 5.30078 21.5859C5.76953 20.0755 6.39453 18.7604 7.17578 17.6406C7.97005 16.5208 8.875 15.5833 9.89062 14.8281C10.9193 14.0599 11.9805 13.4414 13.0742 12.9727C14.168 12.4909 15.2617 12.1523 16.3555 11.957C17.4492 11.7487 18.4648 11.6445 19.4023 11.6445ZM33.8359 12.2891C36.6484 12.3932 38.9141 12.4453 40.6328 12.4453C41.2839 12.4453 42.332 12.4193 43.7773 12.3672C45.2227 12.3151 46.3359 12.2891 47.1172 12.2891C50.0078 12.2891 52.2799 13.0182 53.9336 14.4766C55.6003 15.9349 56.4336 17.8294 56.4336 20.1602C56.4336 22.0352 55.8802 23.7148 54.7734 25.1992C53.6667 26.6706 52.1562 27.7253 50.2422 28.3633C51.1146 29.9258 52.3125 31.6966 53.8359 33.6758C55.3073 35.6419 56.707 37.1849 58.0352 38.3047C59.3763 39.4245 60.8151 40.056 62.3516 40.1992C62.4036 40.4076 62.4297 40.5703 62.4297 40.6875C62.4297 40.8177 62.4036 40.9609 62.3516 41.1172C61.5703 41.0781 60.737 41.0521 59.8516 41.0391C58.9661 41.026 57.9766 41.0195 56.8828 41.0195C55.8021 41.0195 54.9688 41.013 54.3828 41C50.8802 36.9245 48.0677 32.9141 45.9453 28.9688C44.9948 28.9688 43.901 28.819 42.6641 28.5195C42.6641 31.0456 42.7357 34.3138 42.8789 38.3242C42.8919 38.6628 43.0417 38.9557 43.3281 39.2031C43.6146 39.4375 44.0247 39.6198 44.5586 39.75C45.1055 39.8802 45.5612 39.9779 45.9258 40.043C46.3034 40.0951 46.7917 40.1471 47.3906 40.1992C47.4427 40.4596 47.4688 40.6354 47.4688 40.7266C47.4688 40.8307 47.4427 40.9609 47.3906 41.1172C45.1771 41.0391 42.9115 41 40.5938 41C38.25 41 35.9844 41.0391 33.7969 41.1172C33.7448 40.9609 33.7188 40.8307 33.7188 40.7266C33.7188 40.5052 33.7448 40.3294 33.7969 40.1992C34.1875 40.1602 34.5 40.1276 34.7344 40.1016C34.9688 40.0755 35.2878 40.0299 35.6914 39.9648C36.1081 39.8997 36.4401 39.8281 36.6875 39.75C36.9479 39.6589 37.2148 39.5482 37.4883 39.418C37.7617 39.2878 37.9635 39.1315 38.0938 38.9492C38.237 38.7669 38.3086 38.5586 38.3086 38.3242C38.4648 34.2487 38.543 30.1406 38.543 26C38.543 21.7812 38.4779 18.1419 38.3477 15.082C38.3346 14.7435 38.1849 14.457 37.8984 14.2227C37.612 13.9753 37.1953 13.7865 36.6484 13.6562C36.1146 13.526 35.6589 13.4349 35.2812 13.3828C34.9167 13.3177 34.4349 13.2591 33.8359 13.207C33.7839 12.9727 33.7578 12.8099 33.7578 12.7188C33.7578 12.6406 33.7839 12.4974 33.8359 12.2891ZM42.918 13.6367H42.8789C42.7357 18.4414 42.6641 22.9076 42.6641 27.0352C43.5755 27.3346 44.5 27.4844 45.4375 27.4844C46.2969 27.4844 47.0651 27.3411 47.7422 27.0547C48.4323 26.7552 48.9987 26.3646 49.4414 25.8828C49.8841 25.401 50.2487 24.8346 50.5352 24.1836C50.8346 23.5326 51.043 22.875 51.1602 22.2109C51.2904 21.5469 51.3555 20.8633 51.3555 20.1602C51.3555 18.2201 50.8216 16.638 49.7539 15.4141C48.6992 14.1771 47.1953 13.5586 45.2422 13.5586C44.2786 13.5586 43.5039 13.5846 42.918 13.6367ZM80.125 11.625C81.1276 11.625 82.1823 11.7292 83.2891 11.9375C84.4089 12.1458 85.5091 12.4909 86.5898 12.9727C87.6836 13.4414 88.7253 14.0664 89.7148 14.8477C90.7174 15.6159 91.5964 16.5599 92.3516 17.6797C93.1068 18.7995 93.7057 20.1081 94.1484 21.6055C94.6042 23.1029 94.832 24.8216 94.832 26.7617C94.832 28.7148 94.6107 30.4466 94.168 31.957C93.7253 33.4544 93.1263 34.763 92.3711 35.8828C91.6159 36.9896 90.737 37.9271 89.7344 38.6953C88.7448 39.4505 87.6966 40.0625 86.5898 40.5312C85.4961 40.987 84.3763 41.3125 83.2305 41.5078C82.0846 41.7161 80.9909 41.8203 79.9492 41.8203C78.9596 41.8203 77.9049 41.7161 76.7852 41.5078C75.6784 41.3125 74.5781 40.987 73.4844 40.5312C72.3906 40.0625 71.3424 39.4505 70.3398 38.6953C69.3503 37.9271 68.4714 36.9896 67.7031 35.8828C66.9479 34.763 66.3424 33.4544 65.8867 31.957C65.444 30.4466 65.2227 28.7148 65.2227 26.7617C65.2227 24.7565 65.457 22.9922 65.9258 21.4688C66.3945 19.9323 67.013 18.6042 67.7812 17.4844C68.5625 16.3646 69.4609 15.4336 70.4766 14.6914C71.5052 13.9362 72.5664 13.3307 73.6602 12.875C74.7669 12.4193 75.8737 12.1003 76.9805 11.918C78.1003 11.7227 79.1484 11.625 80.125 11.625ZM80.0273 13.0312C78.8034 13.0312 77.7161 13.2331 76.7656 13.6367C75.8151 14.0404 74.9818 14.5872 74.2656 15.2773C73.5495 15.9544 72.944 16.7487 72.4492 17.6602C71.9544 18.5586 71.5508 19.5156 71.2383 20.5312C70.9388 21.5469 70.7174 22.5885 70.5742 23.6562C70.444 24.724 70.3789 25.7591 70.3789 26.7617C70.3789 27.7253 70.444 28.7279 70.5742 29.7695C70.7044 30.8112 70.9193 31.8398 71.2188 32.8555C71.5182 33.8581 71.9089 34.8151 72.3906 35.7266C72.8854 36.638 73.4909 37.4388 74.207 38.1289C74.9232 38.819 75.7565 39.3724 76.707 39.7891C77.6706 40.1927 78.7773 40.3945 80.0273 40.3945C81.2513 40.3945 82.3385 40.1992 83.2891 39.8086C84.2396 39.4049 85.0729 38.8646 85.7891 38.1875C86.5052 37.4974 87.1042 36.7031 87.5859 35.8047C88.0807 34.8932 88.4779 33.9362 88.7773 32.9336C89.0898 31.918 89.3112 30.8828 89.4414 29.8281C89.5846 28.7734 89.6562 27.7513 89.6562 26.7617C89.6562 25.7591 89.5846 24.724 89.4414 23.6562C89.3112 22.5885 89.0898 21.5469 88.7773 20.5312C88.4779 19.5156 88.0807 18.5586 87.5859 17.6602C87.0911 16.7487 86.4857 15.9544 85.7695 15.2773C85.0534 14.5872 84.2201 14.0404 83.2695 13.6367C82.319 13.2331 81.2383 13.0312 80.0273 13.0312ZM117.742 20.5508C117.247 18.168 116.336 16.319 115.008 15.0039C113.693 13.6888 112.111 13.0312 110.262 13.0312C108.452 13.0312 107.046 13.4609 106.043 14.3203C105.053 15.1797 104.559 16.3255 104.559 17.7578C104.559 18.5521 104.63 19.2096 104.773 19.7305C104.917 20.2513 105.21 20.7591 105.652 21.2539C106.095 21.7357 106.74 22.1654 107.586 22.543C108.432 22.9076 109.539 23.2591 110.906 23.5977C111.648 23.7799 112.293 23.9492 112.84 24.1055C113.4 24.2617 114.012 24.4766 114.676 24.75C115.353 25.0234 115.932 25.3164 116.414 25.6289C116.909 25.9414 117.397 26.332 117.879 26.8008C118.374 27.2565 118.771 27.7643 119.07 28.3242C119.383 28.8841 119.63 29.5482 119.812 30.3164C120.008 31.0716 120.105 31.8984 120.105 32.7969C120.105 33.9948 119.884 35.1016 119.441 36.1172C118.999 37.1198 118.419 37.9661 117.703 38.6562C116.987 39.3464 116.16 39.9323 115.223 40.4141C114.285 40.8958 113.335 41.2474 112.371 41.4688C111.408 41.6901 110.451 41.8008 109.5 41.8008C106.609 41.8008 103.53 41.0521 100.262 39.5547C100.327 38.1484 100.359 37.2826 100.359 36.957C100.359 34.8346 100.184 32.7188 99.832 30.6094C99.9753 30.5182 100.118 30.4727 100.262 30.4727C100.444 30.4727 100.607 30.5182 100.75 30.6094C101.023 32.2891 101.473 33.7734 102.098 35.0625C102.736 36.3516 103.465 37.3737 104.285 38.1289C105.105 38.8711 105.952 39.431 106.824 39.8086C107.71 40.1732 108.602 40.3555 109.5 40.3555C111.544 40.3555 113.113 39.8281 114.207 38.7734C115.314 37.7057 115.867 36.2995 115.867 34.5547C115.867 32.7969 115.457 31.4753 114.637 30.5898C113.829 29.6914 112.28 28.9622 109.988 28.4023C107.124 27.6862 104.884 26.6315 103.27 25.2383C101.668 23.832 100.867 21.9766 100.867 19.6719C100.867 18.4609 101.062 17.3802 101.453 16.4297C101.857 15.4661 102.371 14.6979 102.996 14.125C103.634 13.5391 104.376 13.0573 105.223 12.6797C106.069 12.2891 106.902 12.0221 107.723 11.8789C108.556 11.7227 109.402 11.6445 110.262 11.6445C112.84 11.6445 115.522 12.2435 118.309 13.4414C118.23 14.2096 118.191 15.0104 118.191 15.8438C118.191 17.7969 118.348 19.3659 118.66 20.5508C118.491 20.6159 118.348 20.6484 118.23 20.6484C118.1 20.6484 117.938 20.6159 117.742 20.5508ZM124.031 12.2891C126.948 12.3932 129.214 12.4453 130.828 12.4453C132.443 12.4453 134.708 12.3932 137.625 12.2891C137.677 12.4974 137.703 12.6406 137.703 12.7188C137.703 12.8099 137.677 12.9727 137.625 13.207C137.026 13.2591 136.538 13.3177 136.16 13.3828C135.796 13.4349 135.34 13.526 134.793 13.6562C134.259 13.7865 133.849 13.9753 133.562 14.2227C133.276 14.457 133.126 14.7435 133.113 15.082C132.944 19.5091 132.859 23.6302 132.859 27.4453C132.859 29.4115 132.931 33.5326 133.074 39.8086H139.109C141.023 39.6784 142.736 39.3984 144.246 38.9688C145.757 38.5391 147.013 37.9922 148.016 37.3281C149.031 36.651 149.865 35.9544 150.516 35.2383C151.18 34.5091 151.753 33.6953 152.234 32.7969C152.573 32.9271 152.794 33.1029 152.898 33.3242C152.365 34.3138 151.948 35.1146 151.648 35.7266C151.362 36.3385 151.043 37.1458 150.691 38.1484C150.353 39.138 150.132 40.0885 150.027 41H133.074C129.546 41 126.518 41.0391 123.992 41.1172C123.94 40.9609 123.914 40.8307 123.914 40.7266C123.914 40.6354 123.94 40.4596 123.992 40.1992C124.591 40.1471 125.073 40.0951 125.438 40.043C125.815 39.9779 126.271 39.8802 126.805 39.75C127.352 39.6198 127.768 39.4375 128.055 39.2031C128.341 38.9557 128.491 38.6628 128.504 38.3242C128.66 34.2487 128.738 30.1406 128.738 26C128.738 21.7812 128.673 18.1419 128.543 15.082C128.53 14.7435 128.38 14.457 128.094 14.2227C127.807 13.9753 127.391 13.7865 126.844 13.6562C126.31 13.526 125.854 13.4349 125.477 13.3828C125.112 13.3177 124.63 13.2591 124.031 13.207C123.979 12.9727 123.953 12.8099 123.953 12.7188C123.953 12.5885 123.979 12.4453 124.031 12.2891ZM153.797 12.2891C156.74 12.3932 159.103 12.4453 160.887 12.4453C163.322 12.4453 165.522 12.3932 167.488 12.2891C167.54 12.4974 167.566 12.6406 167.566 12.7188C167.566 12.862 167.54 13.0247 167.488 13.207C165.965 13.2721 164.845 13.4089 164.129 13.6172C163.426 13.8255 163.074 14.1641 163.074 14.6328C163.074 14.8021 163.185 15.0951 163.406 15.5117L169.402 26.2734H169.559L176.121 15.3555C176.277 15.0951 176.355 14.8281 176.355 14.5547C176.355 14.151 176.095 13.8581 175.574 13.6758C175.066 13.4805 174.298 13.3242 173.27 13.207C173.217 12.9206 173.191 12.7448 173.191 12.6797C173.191 12.5755 173.217 12.4453 173.27 12.2891C174.949 12.3672 176.473 12.4062 177.84 12.4062C179.311 12.4062 180.789 12.3672 182.273 12.2891C182.326 12.4453 182.352 12.5755 182.352 12.6797C182.352 12.888 182.326 13.0638 182.273 13.207C181.323 13.2982 180.522 13.4935 179.871 13.793C179.22 14.0924 178.66 14.6133 178.191 15.3555L170.086 28.4414C170.086 31.2539 170.151 34.5482 170.281 38.3242C170.294 38.6628 170.444 38.9557 170.73 39.2031C171.017 39.4375 171.427 39.6198 171.961 39.75C172.508 39.8802 172.964 39.9779 173.328 40.043C173.706 40.0951 174.194 40.1471 174.793 40.1992C174.845 40.3555 174.871 40.5312 174.871 40.7266C174.871 40.8307 174.845 40.9609 174.793 41.1172C172.605 41.0391 170.34 41 167.996 41C165.665 41 163.4 41.0391 161.199 41.1172C161.147 40.9609 161.121 40.8307 161.121 40.7266C161.121 40.5052 161.147 40.3294 161.199 40.1992C161.798 40.1471 162.28 40.0951 162.645 40.043C163.022 39.9779 163.478 39.8802 164.012 39.75C164.559 39.6198 164.975 39.4375 165.262 39.2031C165.548 38.9557 165.698 38.6628 165.711 38.3242C165.841 35.056 165.926 31.7617 165.965 28.4414L158.328 15.082C157.82 14.444 157.195 13.9948 156.453 13.7344C155.711 13.474 154.826 13.2982 153.797 13.207C153.745 12.9727 153.719 12.8099 153.719 12.7188C153.719 12.5885 153.745 12.4453 153.797 12.2891Z" fill="black"/>
</svg>
